<?xml version="1.0" encoding="UTF-8"?><svg version="1.1" width="330px" height="50px" viewBox="0 0 330.0 50.0" xmlns="http://www.w3.org/2000/svg" xmlns:xlink="http://www.w3.org/1999/xlink"><defs><clipPath id="i0"><path d="M1600,0 L1600,1080 L0,1080 L0,0 L1600,0 Z"></path></clipPath><clipPath id="i1"><path d="M7.25748698,0 C8.66265191,0 9.91590712,0.334201389 11.0172526,1.00260417 C12.1185981,1.67100694 12.9749891,2.62234158 13.5864258,3.85660807 C14.1978624,5.09087457 14.5073785,6.50553385 14.514974,8.10058594 L14.514974,8.86393229 C14.514974,10.4817708 14.2149523,11.91352 13.6149089,13.1591797 C13.0148655,14.4048394 12.1622721,15.3637695 11.0571289,16.0359701 C9.95198568,16.7081706 8.69303385,17.0442708 7.28027344,17.0442708 C5.86751302,17.0442708 4.61425781,16.7195638 3.52050781,16.0701497 C2.42675781,15.4207357 1.5741645,14.4921875 0.962727865,13.2845052 C0.351291233,12.0768229 0.0303819444,10.6906467 0,9.12597656 L0,8.19173177 C0,6.56629774 0.29812283,5.13264974 0.89436849,3.89078776 C1.49061415,2.64892578 2.34510634,1.68999566 3.45784505,1.0139974 C4.57058377,0.337999132 5.83713108,0 7.25748698,0 Z M7.25748698,3.13313802 C5.25227865,3.13313802 4.19270833,4.63704427 4.07877604,7.64485677 L4.06738281,8.86393229 C4.06738281,10.4893663 4.33702257,11.7388238 4.87630208,12.6123047 C5.4155816,13.4857856 6.21690538,13.922526 7.28027344,13.922526 C8.29047309,13.922526 9.06901042,13.4933811 9.61588542,12.6350911 C10.1627604,11.7768012 10.4399957,10.5425347 10.4475911,8.93229167 L10.4475911,8.16894531 C10.4475911,6.52072483 10.1722548,5.26936849 9.62158203,4.4148763 C9.07090929,3.56038411 8.2828776,3.13313802 7.25748698,3.13313802 Z"></path></clipPath><clipPath id="i2"><path d="M6.98404948,0 C8.9968533,0 10.6146918,0.529785156 11.8375651,1.58935547 C13.0604384,2.64892578 13.7554253,4.10915799 13.922526,5.97005208 L9.93489583,5.97005208 C9.90451389,4.95985243 9.6500651,4.23448351 9.17154948,3.79394531 C8.69303385,3.35340712 7.96386719,3.13313802 6.98404948,3.13313802 C5.9890408,3.13313802 5.25987413,3.50531684 4.79654948,4.24967448 C4.33322483,4.99403212 4.09016927,6.18272569 4.06738281,7.81575521 L4.06738281,8.98925781 C4.06738281,10.7590061 4.28955078,12.0236545 4.73388672,12.7832031 C5.17822266,13.5427517 5.94346788,13.922526 7.0296224,13.922526 C7.94867622,13.922526 8.65125868,13.7060547 9.13736979,13.273112 C9.6234809,12.8401693 9.88172743,12.1527778 9.91210938,11.2109375 L13.8883464,11.2109375 C13.835178,12.3654514 13.523763,13.3851454 12.9541016,14.2700195 C12.3844401,15.1548937 11.5850152,15.8403863 10.5558268,16.3264974 C9.52663845,16.8126085 8.35123698,17.0556641 7.0296224,17.0556641 C4.84971788,17.0556641 3.13313802,16.3454861 1.87988281,14.9251302 C0.626627604,13.5047743 0,11.499566 0,8.90950521 L0,8.08919271 C0,6.46375868 0.282931858,5.04150391 0.848795573,3.82242839 C1.41465929,2.60335286 2.22927517,1.66151259 3.29264323,0.996907552 C4.35601128,0.332302517 5.58648003,0 6.98404948,0 Z"></path></clipPath><clipPath id="i3"><path d="M6.61946615,0 C7.88791233,0 9.0101454,0.233561198 9.98616536,0.700683594 C10.9621853,1.16780599 11.7179362,1.83241102 12.253418,2.6944987 C12.7888997,3.55658637 13.0566406,4.53450521 13.0566406,5.62825521 C13.0566406,7.24609375 12.4774848,8.53922526 11.3191732,9.50764974 C10.1608615,10.4760742 8.57150608,10.9602865 6.55110677,10.9602865 L3.99902344,10.9602865 L3.99902344,16.5885417 L0,16.5885417 L0,0 L6.61946615,0 Z M6.66503906,3.0875651 L3.99902344,3.0875651 L3.99902344,7.87272135 L6.61946615,7.87272135 C7.39420573,7.87272135 7.98475477,7.67903646 8.39111328,7.29166667 C8.79747179,6.90429688 9.00065104,6.35742188 9.00065104,5.65104167 C9.00065104,4.87630208 8.79177517,4.25726997 8.37402344,3.79394531 C7.9562717,3.33062066 7.38661024,3.09516059 6.66503906,3.0875651 Z"></path></clipPath><clipPath id="i4"><path d="M7.24609375,0 C8.65125868,0 9.90451389,0.334201389 11.0058594,1.00260417 C12.1072049,1.67100694 12.9635959,2.62234158 13.5750326,3.85660807 C14.1864692,5.09087457 14.4959852,6.50553385 14.5035807,8.10058594 L14.5035807,8.86393229 C14.5035807,10.3982205 14.2491319,11.7369249 13.7402344,12.8800456 C13.2313368,14.0231662 12.5287543,14.9403212 11.632487,15.6315104 L14.3098958,17.750651 L11.8375651,19.8470052 L8.27148437,16.9759115 C7.93728299,17.0214844 7.6030816,17.0442708 7.26888021,17.0442708 C5.85611979,17.0442708 4.60286458,16.7176649 3.50911458,16.0644531 C2.41536458,15.4112413 1.56277127,14.4769965 0.951334635,13.2617187 C0.339898003,12.046441 0.0227864583,10.6488715 0,9.06901042 L0,8.19173177 C0,6.55870226 0.29812283,5.12315538 0.89436849,3.88509115 C1.49061415,2.64702691 2.34130859,1.68999566 3.44645182,1.0139974 C4.55159505,0.337999132 5.81814236,0 7.24609375,0 Z M7.24609375,3.13313802 C6.19032118,3.13313802 5.39659288,3.5546875 4.86490885,4.39778646 C4.33322483,5.24088542 4.06358507,6.47515191 4.05598958,8.10058594 L4.05598958,8.86393229 C4.05598958,10.4969618 4.32562934,11.7483181 4.86490885,12.6180013 C5.40418837,13.4876845 6.20551215,13.922526 7.26888021,13.922526 C8.28667535,13.922526 9.06711155,13.4933811 9.6101888,12.6350911 C10.1532661,11.7768012 10.4286024,10.5425347 10.4361979,8.93229167 L10.4361979,8.16894531 C10.4361979,6.52072483 10.1608615,5.26936849 9.6101888,4.4148763 C9.05951606,3.56038411 8.27148438,3.13313802 7.24609375,3.13313802 Z"></path></clipPath><clipPath id="i5"><path d="M4.0218099,0 L4.0218099,11.0172526 C4.06738281,12.8325738 4.91048177,13.7402344 6.55110677,13.7402344 C7.37901476,13.7402344 8.00564236,13.5123698 8.43098958,13.0566406 C8.85633681,12.6009115 9.06901042,11.8603516 9.06901042,10.8349609 L9.06901042,0 L13.0680339,0 L13.0680339,10.8577474 C13.0680339,12.0882161 12.8059896,13.1534831 12.281901,14.0535482 C11.7578125,14.9536133 11.0058594,15.6391059 10.0260417,16.110026 C9.04622396,16.5809462 7.88791233,16.8164062 6.55110677,16.8164062 C4.53070747,16.8164062 2.93945313,16.2923177 1.77734375,15.2441406 C0.615234375,14.1959635 0.0227864583,12.7604167 0,10.9375 L0,0 L4.0218099,0 Z"></path></clipPath><clipPath id="i6"><path d="M9.84375,0 L15.9733073,16.5885417 L11.6780599,16.5885417 L10.7096354,13.4895833 L5.22949219,13.4895833 L4.27246094,16.5885417 L0,16.5885417 L6.08398437,0 L9.84375,0 Z M7.96386719,4.6484375 L6.18652344,10.4020182 L9.75260417,10.4020182 L7.96386719,4.6484375 Z"></path></clipPath><clipPath id="i7"><path d="M3.99902344,0 L3.99902344,13.5123698 L10.9602865,13.5123698 L10.9602865,16.5885417 L0,16.5885417 L0,0 L3.99902344,0 Z"></path></clipPath><clipPath id="i8"><path d="M3.98763021,0 L3.98763021,16.5885417 L0,16.5885417 L0,0 L3.98763021,0 Z"></path></clipPath><clipPath id="i9"><path d="M11.0970052,0 L11.0970052,3.0875651 L3.99902344,3.0875651 L3.99902344,6.90429688 L10.4475911,6.90429688 L10.4475911,9.98046875 L3.99902344,9.98046875 L3.99902344,16.5885417 L0,16.5885417 L0,0 L11.0970052,0 Z"></path></clipPath><clipPath id="i10"><path d="M3.98763021,0 L3.98763021,16.5885417 L0,16.5885417 L0,0 L3.98763021,0 Z"></path></clipPath><clipPath id="i11"><path d="M6.98404948,0 C8.9968533,0 10.6146918,0.529785156 11.8375651,1.58935547 C13.0604384,2.64892578 13.7554253,4.10915799 13.922526,5.97005208 L9.93489583,5.97005208 C9.90451389,4.95985243 9.6500651,4.23448351 9.17154948,3.79394531 C8.69303385,3.35340712 7.96386719,3.13313802 6.98404948,3.13313802 C5.9890408,3.13313802 5.25987413,3.50531684 4.79654948,4.24967448 C4.33322483,4.99403212 4.09016927,6.18272569 4.06738281,7.81575521 L4.06738281,8.98925781 C4.06738281,10.7590061 4.28955078,12.0236545 4.73388672,12.7832031 C5.17822266,13.5427517 5.94346788,13.922526 7.0296224,13.922526 C7.94867622,13.922526 8.65125868,13.7060547 9.13736979,13.273112 C9.6234809,12.8401693 9.88172743,12.1527778 9.91210938,11.2109375 L13.8883464,11.2109375 C13.835178,12.3654514 13.523763,13.3851454 12.9541016,14.2700195 C12.3844401,15.1548937 11.5850152,15.8403863 10.5558268,16.3264974 C9.52663845,16.8126085 8.35123698,17.0556641 7.0296224,17.0556641 C4.84971788,17.0556641 3.13313802,16.3454861 1.87988281,14.9251302 C0.626627604,13.5047743 0,11.499566 0,8.90950521 L0,8.08919271 C0,6.46375868 0.282931858,5.04150391 0.848795573,3.82242839 C1.41465929,2.60335286 2.22927517,1.66151259 3.29264323,0.996907552 C4.35601128,0.332302517 5.58648003,0 6.98404948,0 Z"></path></clipPath><clipPath id="i12"><path d="M9.84375,0 L15.9733073,16.5885417 L11.6780599,16.5885417 L10.7096354,13.4895833 L5.22949219,13.4895833 L4.27246094,16.5885417 L0,16.5885417 L6.08398438,0 L9.84375,0 Z M7.96386719,4.6484375 L6.18652344,10.4020182 L9.75260417,10.4020182 L7.96386719,4.6484375 Z"></path></clipPath><clipPath id="i13"><path d="M13.8655599,0 L13.8655599,3.0875651 L8.88671875,3.0875651 L8.88671875,16.5885417 L4.88769531,16.5885417 L4.88769531,3.0875651 L0,3.0875651 L0,0 L13.8655599,0 Z"></path></clipPath><clipPath id="i14"><path d="M3.98763021,0 L3.98763021,16.5885417 L0,16.5885417 L0,0 L3.98763021,0 Z"></path></clipPath><clipPath id="i15"><path d="M7.25748698,0 C8.66265191,0 9.91590712,0.334201389 11.0172526,1.00260417 C12.1185981,1.67100694 12.9749891,2.62234158 13.5864258,3.85660807 C14.1978624,5.09087457 14.5073785,6.50553385 14.514974,8.10058594 L14.514974,8.86393229 C14.514974,10.4817708 14.2149523,11.91352 13.6149089,13.1591797 C13.0148655,14.4048394 12.1622721,15.3637695 11.0571289,16.0359701 C9.95198568,16.7081706 8.69303385,17.0442708 7.28027344,17.0442708 C5.86751302,17.0442708 4.61425781,16.7195638 3.52050781,16.0701497 C2.42675781,15.4207357 1.5741645,14.4921875 0.962727865,13.2845052 C0.351291233,12.0768229 0.0303819444,10.6906467 0,9.12597656 L0,8.19173177 C0,6.56629774 0.29812283,5.13264974 0.89436849,3.89078776 C1.49061415,2.64892578 2.34510634,1.68999566 3.45784505,1.0139974 C4.57058377,0.337999132 5.83713108,0 7.25748698,0 Z M7.25748698,3.13313802 C5.25227865,3.13313802 4.19270833,4.63704427 4.07877604,7.64485677 L4.06738281,8.86393229 C4.06738281,10.4893663 4.33702257,11.7388238 4.87630208,12.6123047 C5.4155816,13.4857856 6.21690538,13.922526 7.28027344,13.922526 C8.29047309,13.922526 9.06901042,13.4933811 9.61588542,12.6350911 C10.1627604,11.7768012 10.4399957,10.5425347 10.4475911,8.93229167 L10.4475911,8.16894531 C10.4475911,6.52072483 10.1722548,5.26936849 9.62158203,4.4148763 C9.07090929,3.56038411 8.2828776,3.13313802 7.25748698,3.13313802 Z"></path></clipPath><clipPath id="i16"><path d="M3.99902344,0 L9.86653646,10.3222656 L9.86653646,0 L13.8541667,0 L13.8541667,16.5885417 L9.87792969,16.5885417 L3.99902344,6.26627604 L3.99902344,16.5885417 L0,16.5885417 L0,0 L3.99902344,0 Z"></path></clipPath><clipPath id="i17"><path d="M6.61946615,0 C7.88791233,0 9.0101454,0.233561198 9.98616536,0.700683594 C10.9621853,1.16780599 11.7179362,1.83241102 12.253418,2.6944987 C12.7888997,3.55658637 13.0566406,4.53450521 13.0566406,5.62825521 C13.0566406,7.24609375 12.4774848,8.53922526 11.3191732,9.50764974 C10.1608615,10.4760742 8.57150608,10.9602865 6.55110677,10.9602865 L3.99902344,10.9602865 L3.99902344,16.5885417 L0,16.5885417 L0,0 L6.61946615,0 Z M6.66503906,3.0875651 L3.99902344,3.0875651 L3.99902344,7.87272135 L6.61946615,7.87272135 C7.39420573,7.87272135 7.98475477,7.67903646 8.39111328,7.29166667 C8.79747179,6.90429688 9.00065104,6.35742188 9.00065104,5.65104167 C9.00065104,4.87630208 8.79177517,4.25726997 8.37402344,3.79394531 C7.9562717,3.33062066 7.38661024,3.09516059 6.66503906,3.0875651 Z"></path></clipPath><clipPath id="i18"><path d="M6.52832031,0 C8.49555122,0 10.0336372,0.436740451 11.1425781,1.31022135 C12.2515191,2.18370226 12.8059896,3.41796875 12.8059896,5.01302083 C12.8059896,6.16753472 12.5724284,7.12456597 12.105306,7.88411458 C11.6381836,8.64366319 10.9071181,9.25889757 9.91210938,9.72981771 L13.375651,16.4176432 L13.375651,16.5885417 L9.09179688,16.5885417 L6.16373698,10.7324219 L3.99902344,10.7324219 L3.99902344,16.5885417 L0,16.5885417 L0,0 L6.52832031,0 Z M6.52832031,3.0875651 L3.99902344,3.0875651 L3.99902344,7.64485677 L6.52832031,7.64485677 C7.28786892,7.64485677 7.85942925,7.44547526 8.2430013,7.04671224 C8.62657335,6.64794922 8.81835938,6.09157986 8.81835938,5.37760417 C8.81835938,4.66362847 8.62467448,4.10346137 8.23730469,3.69710286 C7.8499349,3.29074436 7.28027344,3.0875651 6.52832031,3.0875651 Z"></path></clipPath><clipPath id="i19"><path d="M18.3683174,0.155663707 L18.3683174,15.0993796 C18.3683174,16.3446893 16.9673441,16.9673441 16.0333618,16.1890255 L10.7407958,11.8304417 C10.7407958,11.8304417 10.5851321,11.8304417 10.5851321,11.674778 C10.118141,11.3634506 9.65114984,11.2077869 9.18415872,11.2077869 C8.56150389,11.2077869 8.09451277,11.3634506 7.62752165,11.8304417 L2.33495561,16.3446893 C1.40097336,17.1230078 0,16.500353 0,15.2550433 L0,0.155663707 L18.3683174,0.155663707 Z"></path></clipPath><clipPath id="i20"><path d="M9.18415872,0 L9.18415872,15.0993796 C9.18415872,16.3446893 7.78318536,16.9673441 6.84920311,16.1890255 L1.55663707,11.8304417 C1.55663707,11.8304417 1.40097336,11.8304417 1.40097336,11.674778 C0.933982243,11.3634506 0.466991121,11.2077869 0,11.2077869 L0,0 L9.18415872,0 Z"></path></clipPath><clipPath id="i21"><path d="M18.3683174,0 L18.3683174,2.33495561 C16.9673441,2.64628302 15.2550433,2.1792919 14.0097336,2.49061931 C12.4530966,2.95761044 10.8964595,4.66991121 9.18415872,4.66991121 C7.47185794,4.66991121 5.91522087,2.95761044 4.3585838,2.49061931 C2.95761044,2.1792919 1.24530966,2.64628302 0,2.33495561 L0,0 L18.3683174,0 Z"></path></clipPath><clipPath id="i22"><path d="M20.2362819,0 C21.9485827,0 23.5052198,1.71230078 25.0618569,2.1792919 C26.7741576,2.64628302 28.7977858,1.86796449 30.3544229,2.64628302 C31.7553963,3.42460156 32.2223874,5.75955716 33.467697,7.00486682 C34.7130067,8.25017648 36.8922986,8.56150389 37.8262808,10.118141 C38.6045994,11.5191143 37.8262808,13.6984062 38.293272,15.410707 C38.7602631,16.9673441 40.4725639,18.5239812 40.4725639,20.2362819 C40.4725639,21.9485827 38.7602631,23.5052198 38.293272,25.0618569 C37.8262808,26.7741576 38.6045994,28.7977858 37.8262808,30.3544229 C36.8922986,31.91106 34.7130067,32.2223874 33.467697,33.467697 C32.2223874,34.7130067 31.91106,36.8922986 30.3544229,37.8262808 C28.9534495,38.6045994 26.7741576,37.8262808 25.0618569,38.293272 C23.5052198,38.7602631 21.9485827,40.4725639 20.2362819,40.4725639 C18.5239812,40.4725639 16.9673441,38.7602631 15.410707,38.293272 C13.6984062,37.8262808 11.674778,38.6045994 10.118141,37.8262808 C8.7171676,37.0479623 8.25017648,34.7130067 7.00486682,33.467697 C5.75955716,32.2223874 3.58026526,31.91106 2.64628302,30.3544229 C1.86796449,28.9534495 2.64628302,26.7741576 2.1792919,25.0618569 C1.71230078,23.5052198 0,21.9485827 0,20.2362819 C0,18.5239812 1.71230078,16.9673441 2.1792919,15.410707 C2.64628302,13.6984062 1.86796449,11.674778 2.64628302,10.118141 C3.42460156,8.7171676 5.75955716,8.25017648 7.00486682,7.00486682 C7.48915391,6.52057973 7.8321906,5.89504224 8.16214855,5.25642601 L8.44475611,4.70882714 C8.87283131,3.89159268 9.33982243,3.11327414 10.118141,2.64628302 C11.5191143,1.86796449 13.6984062,2.64628302 15.410707,2.1792919 C16.9673441,1.71230078 18.5239812,0 20.2362819,0 Z"></path></clipPath><clipPath id="i23"><path d="M15.0993796,0 C23.3495561,0 30.1987592,6.84920311 30.1987592,15.0993796 C30.1987592,23.3495561 23.5052198,30.1987592 15.0993796,30.1987592 C6.84920311,30.1987592 0,23.5052198 0,15.0993796 C0,6.84920311 6.69353941,0 15.0993796,0 Z"></path></clipPath><clipPath id="i24"><path d="M13.5427425,0 C21.0146005,0 27.085485,6.07088458 27.085485,13.5427425 C27.085485,21.0146005 21.0146005,27.085485 13.5427425,27.085485 C6.07088458,27.085485 0,21.0146005 0,13.5427425 C0,6.07088458 6.07088458,0 13.5427425,0 Z"></path></clipPath><clipPath id="i25"><path d="M13.5663219,0.00272319538 C21.1938436,0.158386903 27.5760556,6.22927148 27.1090645,14.479448 C26.6420733,7.31891743 20.7268525,1.71502397 13.5663219,1.71502397 C6.40579141,1.71502397 0.490570542,7.31891743 0.023579421,14.479448 C-0.4434117,6.38493519 6.094464,-0.152940512 13.5663219,0.00272319538 Z"></path></clipPath><clipPath id="i26"><path d="M9.75816864,0.466991121 L11.9374605,4.82557492 C12.0931242,5.13690234 12.248788,5.29256604 12.5601154,5.29256604 L17.3856903,6.07088458 C18.1640088,6.22654829 18.4753362,7.00486682 17.8526814,7.62752165 L14.4280799,10.7407958 C14.2724161,11.0521232 14.1167524,11.2077869 14.1167524,11.5191143 L14.895071,16.3446893 C15.0507347,17.1230078 14.2724161,17.5899989 13.6497613,17.2786715 L9.44684123,15.0993796 C9.13551381,14.9437159 8.8241864,14.9437159 8.66852269,15.0993796 L4.4656026,17.2786715 C3.84294777,17.5899989 3.06462923,17.1230078 3.22029294,16.3446893 L3.99861148,11.5191143 C3.99861148,11.2077869 3.99861148,10.8964595 3.68728406,10.7407958 L0.262682506,7.31619424 C-0.204308616,6.84920311 -0.0486449085,5.91522087 0.729673627,5.75955716 L5.55524855,4.98123863 C5.86657596,4.98123863 6.02223967,4.82557492 6.17790338,4.51424751 L8.20153157,0.466991121 C8.51285898,-0.155663707 9.44684123,-0.155663707 9.75816864,0.466991121 Z"></path></clipPath><clipPath id="i27"><path d="M9.91383235,0.466991121 L12.0931242,4.82557492 C12.248788,5.13690234 12.4044517,5.29256604 12.7157791,5.29256604 L17.541354,6.07088458 C18.3196725,6.22654829 18.6309999,7.00486682 18.0083451,7.62752165 L14.5837436,11.0521232 C14.2724161,11.2077869 14.2724161,11.5191143 14.2724161,11.8304417 L15.0507347,16.6560167 C15.2063984,17.4343352 14.4280799,17.9013263 13.805425,17.5899989 L9.60250493,15.410707 C9.29117752,15.2550433 8.97985011,15.2550433 8.8241864,15.410707 L4.4656026,17.5899989 C3.84294777,17.9013263 3.06462923,17.4343352 3.22029294,16.6560167 L3.99861148,11.8304417 C3.99861148,11.5191143 3.99861148,11.2077869 3.68728406,11.0521232 L0.262682506,7.62752165 C-0.204308616,7.16053053 -0.0486449085,6.22654829 0.729673627,6.07088458 L5.55524855,5.29256604 C5.86657596,5.29256604 6.02223967,5.13690234 6.17790338,4.82557492 L8.35719528,0.466991121 C8.66852269,-0.155663707 9.60250493,-0.155663707 9.91383235,0.466991121 Z"></path></clipPath><clipPath id="i28"><path d="M8.78635147,0.466991121 L10.654316,4.3585838 C10.8099797,4.66991121 10.9656434,4.82557492 11.2769708,4.82557492 L15.4798909,5.44822975 C16.1025457,5.60389346 16.4138731,6.38221199 15.946882,6.84920311 C15.946882,6.84920311 13.300599,9.80681355 7.85236923,9.80681355 C3.80511284,9.80681355 0.224847577,6.84920311 0.224847577,6.84920311 C-0.242143544,6.38221199 0.0691838698,5.60389346 0.691838698,5.44822975 L4.89475879,4.82557492 C5.20608621,4.82557492 5.36174991,4.66991121 5.51741362,4.3585838 L7.38537811,0.466991121 C7.69670552,-0.155663707 8.47502406,-0.155663707 8.78635147,0.466991121 Z"></path></clipPath><clipPath id="i29"><path d="M1.52405346,0.0208761063 C2.00116493,0.176539813 1.20597915,3.60114137 0.251756216,3.28981396 C-0.543429563,2.97848654 0.728867684,-0.290451308 1.52405346,0.0208761063 Z"></path></clipPath><clipPath id="i30"><path d="M5.44935205,2.89952271 C5.44935205,3.36651383 5.76067946,3.67784125 6.07200688,3.98916866 L6.08426029,3.97691525 C6.10059817,3.96057737 6.13871989,3.92245564 6.22767058,3.83350495 C7.93997136,1.65421305 8.09563507,1.96554047 6.69466171,4.14483237 L6.69466171,4.30049607 C6.85032541,4.61182349 7.31731653,4.7674872 7.62864395,4.7674872 C11.6759003,4.30049607 11.6759003,4.7674872 7.78430766,5.54580573 C7.31731653,5.54580573 7.00598912,5.85713315 6.69466171,6.16846056 C6.85032541,6.32412427 8.40696248,7.56943393 8.25129878,7.72509763 C8.09563507,7.88076134 6.538998,6.79111539 6.38333429,6.63545168 C6.22767058,6.9467791 6.07200688,7.41377022 6.22767058,7.72509763 C6.69466171,11.6166903 6.07200688,11.772354 5.29368834,7.88076134 C5.13802463,7.41377022 4.98236093,7.1024428 4.67103351,6.79111539 C4.51536981,6.9467791 3.27006015,8.50341617 3.11439644,8.34775246 C2.95873273,8.19208875 4.04837868,6.63545168 4.20404239,6.47978797 C3.89271498,6.32412427 3.42572386,6.32412427 3.11439644,6.32412427 C-0.932859945,6.63545168 -1.08852365,6.16846056 2.95873273,5.39014202 C3.42572386,5.23447832 3.73705127,5.07881461 4.04837868,4.7674872 L3.89271498,4.61182349 C1.71342308,2.89952271 2.02475049,2.743859 4.20404239,4.14483237 L4.3597061,4.14483237 C4.51536981,3.83350495 4.67103351,3.36651383 4.51536981,3.05518642 C4.04837868,-0.992069968 4.67103351,-0.992069968 5.44935205,2.89952271 Z"></path></clipPath><clipPath id="i31"><path d="M0.833333333,0 C1.16666667,0 1.33333333,0.622654829 1.33333333,2.80194673 C1.33333333,4.90340678 1.17835884,5.12320234 0.868409864,5.13622159 L0.833333333,5.13690234 C0.666666667,5.13690234 0.333333333,4.98123863 0.333333333,2.80194673 C0.333333333,0.622654829 0.5,0 0.833333333,0 Z"></path></clipPath><clipPath id="i32"><path d="M7.07397461,0 L7.07397461,1.22151693 L1.484375,1.22151693 L1.484375,4.83968099 L6.36271159,4.83968099 L6.36271159,6.0534668 L1.484375,6.0534668 L1.484375,10.0427246 L7.15128581,10.0427246 L7.15128581,11.2565104 L0,11.2565104 L0,0 L7.07397461,0 Z"></path></clipPath><clipPath id="i33"><path d="M3.17749023,0 C4.15676541,0 5.02265082,0.216471354 5.77514648,0.649414063 C6.52764214,1.08235677 7.10876465,1.69826931 7.518514,2.49715169 C7.92826335,3.29603407 8.13571506,4.21346029 8.14086914,5.24943034 L8.14086914,5.96842448 C8.14086914,7.03016493 7.93599447,7.96047635 7.52624512,8.75935872 C7.11649577,9.5582411 6.5315077,10.1715766 5.77128092,10.5993652 C5.01105414,11.0271539 4.12584093,11.2462023 3.11564128,11.2565104 L0,11.2565104 L0,0 L3.17749023,0 Z M3.21614583,1.22151693 L1.484375,1.22151693 L1.484375,10.0427246 L3.0460612,10.0427246 C4.19026693,10.0427246 5.08063422,9.6870931 5.71716309,8.97583008 C6.35369195,8.26456706 6.67195638,7.25179036 6.67195638,5.9375 L6.67195638,5.28035482 C6.67195638,4.00214301 6.37173123,3.00869412 5.77128092,2.30000814 C5.17083062,1.59132216 4.31911892,1.23182509 3.21614583,1.22151693 Z"></path></clipPath><clipPath id="i34"><path d="M1.46891276,0 L1.46891276,7.62288411 C1.46891276,8.43722873 1.69311523,9.06989204 2.14152018,9.52087402 C2.58992513,9.97185601 3.22903103,10.197347 4.05883789,10.197347 C4.89895291,10.197347 5.54192437,9.97314453 5.98775228,9.52473958 C6.43358019,9.07633464 6.65649414,8.44495985 6.65649414,7.63061523 L6.65649414,0 L8.14860026,0 L8.14860026,7.65380859 C8.14344618,8.71554905 7.80971951,9.5840115 7.14742025,10.259196 C6.48512099,10.9343804 5.58702257,11.3132053 4.453125,11.3956706 L4.05883789,11.4111328 C2.8270128,11.4111328 1.84516059,11.0786947 1.11328125,10.4138184 C0.38140191,9.74894206 0.0103081597,8.83409288 0,7.66927083 L0,0 L1.46891276,0 Z"></path></clipPath><clipPath id="i35"><path d="M4.5304362,0 C5.72618273,0 6.68484158,0.333726671 7.40641276,1.00118001 C8.12798394,1.66863336 8.54804145,2.59250217 8.66658529,3.77278646 L7.17447917,3.77278646 C7.04562717,2.87597656 6.76601834,2.2265625 6.33565267,1.82454427 C5.905287,1.42252604 5.30354818,1.22151693 4.5304362,1.22151693 C3.5820855,1.22151693 2.83860948,1.57199436 2.30000814,2.27294922 C1.76140679,2.97390408 1.49210612,3.97121853 1.49210612,5.26489258 L1.49210612,6.35498047 C1.49210612,7.5764974 1.74723307,8.54804145 2.25748698,9.26961263 C2.76774089,9.99118381 3.48158095,10.3519694 4.39900716,10.3519694 C5.22365994,10.3519694 5.85632324,10.165134 6.29699707,9.79146322 C6.7376709,9.41779243 7.03016493,8.76708984 7.17447917,7.83935547 L8.66658529,7.83935547 C8.52742513,9.02994792 8.08803982,9.94866265 7.34842936,10.5954997 C6.6088189,11.2423367 5.62567817,11.5657552 4.39900716,11.5657552 C3.06925456,11.5657552 2.00364855,11.0890028 1.20218913,10.135498 C0.400729709,9.18199327 0,7.90635851 0,6.30859375 L0,5.22623698 C0,4.17995877 0.186835395,3.25995551 0.560506185,2.46622721 C0.934176975,1.67249891 1.46375868,1.06302897 2.1492513,0.637817383 C2.83474392,0.212605794 3.62847222,0 4.5304362,0 Z"></path></clipPath><clipPath id="i36"><path d="M5.59733073,0 L9.90356445,11.2565104 L8.38053385,11.2565104 L7.3059082,8.3186849 L2.58992513,8.3186849 L1.53076172,11.2565104 L0,11.2565104 L4.2985026,0 L5.59733073,0 Z M4.94791667,1.83227539 L3.03833008,7.09716797 L6.86523438,7.09716797 L4.94791667,1.83227539 Z"></path></clipPath><clipPath id="i37"><path d="M8.70524089,0 L8.70524089,1.22151693 L5.08707682,1.22151693 L5.08707682,11.2565104 L3.61043294,11.2565104 L3.61043294,1.22151693 L0,1.22151693 L0,0 L8.70524089,0 Z"></path></clipPath><clipPath id="i38"><path d="M1.57552083,0 L1.57552083,11.2565104 L0.0911458333,11.2565104 L0.0911458333,0 L1.57552083,0 Z"></path></clipPath><clipPath id="i39"><path d="M4.52270508,0 C5.42466905,0 6.21968587,0.217759874 6.90775553,0.653279622 C7.5958252,1.08879937 8.1254069,1.72017415 8.49650065,2.54740397 C8.8675944,3.37463379 9.05314128,4.3371582 9.05314128,5.43497721 L9.05314128,6.14624023 C9.05314128,7.24921332 8.8675944,8.21173774 8.49650065,9.03381348 C8.1254069,9.85588921 7.59969076,10.4833984 6.91935221,10.9163411 C6.23901367,11.3492839 5.44528537,11.5657552 4.53816732,11.5657552 C3.65166558,11.5657552 2.8656684,11.3479953 2.18017578,10.9124756 C1.49468316,10.4769558 0.962524414,9.85588921 0.583699544,9.04927572 C0.204874674,8.24266222 0.0103081597,7.30848524 0,6.24674479 L0,5.43497721 C0,4.35262044 0.188123915,3.39653863 0.564371745,2.56673177 C0.940619575,1.73692491 1.47277832,1.10168457 2.16084798,0.661010742 C2.84891764,0.220336914 3.63620334,0 4.52270508,0 Z M4.52270508,1.27563477 C3.58466254,1.27563477 2.8463406,1.6325548 2.30773926,2.34639486 C1.76913791,3.06023492 1.49210612,4.05110677 1.47664388,5.31901042 L1.47664388,6.14624023 C1.47664388,7.43991428 1.74852159,8.45655653 2.29227702,9.19616699 C2.83603244,9.93577745 3.58466254,10.3055827 4.53816732,10.3055827 C5.49682617,10.3055827 6.23901367,9.95639377 6.76472982,9.25801595 C7.29044596,8.55963813 7.56103516,7.55845812 7.5764974,6.25447591 L7.5764974,5.41951497 C7.5764974,4.08460829 7.30848524,3.06023492 6.77246094,2.34639486 C6.23643663,1.6325548 5.48651801,1.27563477 4.52270508,1.27563477 Z"></path></clipPath><clipPath id="i40"><path d="M1.49210612,0 L7.17447917,8.71297201 L7.17447917,0 L8.65112305,0 L8.65112305,11.2565104 L7.15901693,11.2565104 L1.49210612,2.58219401 L1.49210612,11.2565104 L0,11.2565104 L0,0 L1.49210612,0 Z"></path></clipPath><clipPath id="i41"><path d="M3.77278646,0.249633789 L3.77278646,1.41703288 L0,1.41703288 L0,0.249633789 L3.77278646,0.249633789 Z"></path></clipPath><clipPath id="i42"><path d="M8.70524089,0 L8.70524089,1.22151693 L5.08707682,1.22151693 L5.08707682,11.2565104 L3.61043294,11.2565104 L3.61043294,1.22151693 L0,1.22151693 L0,0 L8.70524089,0 Z"></path></clipPath><clipPath id="i43"><path d="M3.72639974,0 C4.99430339,0 5.969713,0.288628472 6.65262858,0.865885417 C7.33554416,1.44314236 7.67700195,2.28325738 7.67700195,3.38623047 C7.67700195,4.08718533 7.48758952,4.69794379 7.10876465,5.21850586 C6.72993978,5.73906793 6.20293511,6.12820095 5.52775065,6.38590495 L8.17179362,11.163737 L8.17179362,11.2565104 L6.57918294,11.2565104 L4.13614909,6.70288086 L1.49210612,6.70288086 L1.49210612,11.2565104 L0,11.2565104 L0,0 L3.72639974,0 Z M3.76505534,1.22151693 L1.49210612,1.22151693 L1.49210612,5.48909505 L3.77278646,5.48909505 C4.50981988,5.48909505 5.09609646,5.2983941 5.53161621,4.91699219 C5.96713596,4.53559028 6.18489583,4.02533637 6.18489583,3.38623047 C6.18489583,2.69042969 5.97744412,2.15698242 5.56254069,1.78588867 C5.14763726,1.41479492 4.54847548,1.22667101 3.76505534,1.22151693 Z"></path></clipPath><clipPath id="i44"><path d="M1.57552083,0 L1.57552083,11.2565104 L0.0911458333,11.2565104 L0.0911458333,0 L1.57552083,0 Z"></path></clipPath><clipPath id="i45"><path d="M1.57552083,0 L1.57552083,11.2565104 L0.0911458333,11.2565104 L0.0911458333,0 L1.57552083,0 Z"></path></clipPath><clipPath id="i46"><path d="M4.52270508,0 C5.69783529,0 6.64360894,0.300225152 7.36002604,0.900675456 C8.07644314,1.50112576 8.51453993,2.35283746 8.67431641,3.45581055 L7.18994141,3.45581055 C6.91162109,1.96628147 6.02511936,1.22151693 4.5304362,1.22151693 C3.53569878,1.22151693 2.78191461,1.57070584 2.26908366,2.26908366 C1.75625271,2.96746148 1.4972602,3.97894965 1.49210612,5.30354818 L1.49210612,6.22355143 C1.49210612,7.486301 1.78073459,8.49005805 2.35799154,9.23482259 C2.93524848,9.97958713 3.71609158,10.3519694 4.70052083,10.3519694 C5.25716146,10.3519694 5.74422201,10.2901204 6.16170247,10.1664225 C6.57918294,10.0427246 6.92450629,9.83398438 7.19767253,9.54020182 L7.19767253,7.01212565 L4.59228516,7.01212565 L4.59228516,5.80607096 L8.67431641,5.80607096 L8.67431641,9.93448893 C8.2929145,10.4808214 7.76075575,10.8892822 7.07784017,11.1598714 C6.39492459,11.4304606 5.59990777,11.5657552 4.69278971,11.5657552 C3.7753635,11.5657552 2.96101888,11.3505724 2.24975586,10.9202067 C1.53849284,10.489841 0.988294813,9.87779405 0.599161784,9.08406576 C0.210028754,8.29033746 0.0103081597,7.3703342 0,6.32405599 L0,5.34220378 C0,3.6465115 0.395575629,2.33222114 1.18672689,1.39933268 C1.97787815,0.466444227 3.08987088,0 4.52270508,0 Z"></path></clipPath><clipPath id="i47"><path d="M1.484375,0 L1.484375,5.56640625 L6.48640951,0 L8.2800293,0 L3.85009766,4.97111003 L8.62792969,11.2565104 L6.84977214,11.2565104 L2.86051432,6.02254232 L1.484375,7.45279948 L1.484375,11.2565104 L0,11.2565104 L0,0 L1.484375,0 Z"></path></clipPath><clipPath id="i48"><path d="M1.49210612,0 L7.17447917,8.71297201 L7.17447917,0 L8.65112305,0 L8.65112305,11.2565104 L7.15901693,11.2565104 L1.49210612,2.58219401 L1.49210612,11.2565104 L0,11.2565104 L0,0 L1.49210612,0 Z"></path></clipPath><clipPath id="i49"><path d="M4.52270508,0 C5.42466905,0 6.21968587,0.217759874 6.90775553,0.653279622 C7.5958252,1.08879937 8.1254069,1.72017415 8.49650065,2.54740397 C8.8675944,3.37463379 9.05314128,4.3371582 9.05314128,5.43497721 L9.05314128,6.14624023 C9.05314128,7.24921332 8.8675944,8.21173774 8.49650065,9.03381348 C8.1254069,9.85588921 7.59969076,10.4833984 6.91935221,10.9163411 C6.23901367,11.3492839 5.44528537,11.5657552 4.53816732,11.5657552 C3.65166558,11.5657552 2.8656684,11.3479953 2.18017578,10.9124756 C1.49468316,10.4769558 0.962524414,9.85588921 0.583699544,9.04927572 C0.204874674,8.24266222 0.0103081597,7.30848524 0,6.24674479 L0,5.43497721 C0,4.35262044 0.188123915,3.39653863 0.564371745,2.56673177 C0.940619575,1.73692491 1.47277832,1.10168457 2.16084798,0.661010742 C2.84891764,0.220336914 3.63620334,0 4.52270508,0 Z M4.52270508,1.27563477 C3.58466254,1.27563477 2.8463406,1.6325548 2.30773926,2.34639486 C1.76913791,3.06023492 1.49210612,4.05110677 1.47664388,5.31901042 L1.47664388,6.14624023 C1.47664388,7.43991428 1.74852159,8.45655653 2.29227702,9.19616699 C2.83603244,9.93577745 3.58466254,10.3055827 4.53816732,10.3055827 C5.49682617,10.3055827 6.23901367,9.95639377 6.76472982,9.25801595 C7.29044596,8.55963813 7.56103516,7.55845812 7.5764974,6.25447591 L7.5764974,5.41951497 C7.5764974,4.08460829 7.30848524,3.06023492 6.77246094,2.34639486 C6.23643663,1.6325548 5.48651801,1.27563477 4.52270508,1.27563477 Z"></path></clipPath><clipPath id="i50"><path d="M1.484375,0 L3.26253255,7.70792643 L3.47900391,9.19230143 L3.79597982,7.85481771 L6.02254232,0 L7.27498372,0 L9.44742839,7.85481771 L9.75667318,9.21549479 L9.99633789,7.70019531 L11.743571,0 L13.2356771,0 L10.5065918,11.2565104 L9.15364583,11.2565104 L6.8343099,3.05379232 L6.65649414,2.19563802 L6.47867839,3.05379232 L4.07430013,11.2565104 L2.72135417,11.2565104 L0,0 L1.484375,0 Z"></path></clipPath><clipPath id="i51"><path d="M1.49210612,0 L1.49210612,10.0427246 L6.82657878,10.0427246 L6.82657878,11.2565104 L0,11.2565104 L0,0 L1.49210612,0 Z"></path></clipPath><clipPath id="i52"><path d="M7.07397461,0 L7.07397461,1.22151693 L1.484375,1.22151693 L1.484375,4.83968099 L6.36271159,4.83968099 L6.36271159,6.0534668 L1.484375,6.0534668 L1.484375,10.0427246 L7.15128581,10.0427246 L7.15128581,11.2565104 L0,11.2565104 L0,0 L7.07397461,0 Z"></path></clipPath><clipPath id="i53"><path d="M7.07397461,0 L7.07397461,1.22151693 L1.484375,1.22151693 L1.484375,4.83968099 L6.36271159,4.83968099 L6.36271159,6.0534668 L1.484375,6.0534668 L1.484375,10.0427246 L7.15128581,10.0427246 L7.15128581,11.2565104 L0,11.2565104 L0,0 L7.07397461,0 Z"></path></clipPath></defs><g transform="translate(-634.0 -89.0)"><g clip-path="url(#i0)"><g transform="translate(634.0 89.0)"><g transform="translate(54.11946614583334 6.505533854166668)"><g transform="translate(0.0 0.011393229166666075)"><g clip-path="url(#i1)"><polygon points="0,0 14.514974,0 14.514974,17.0442708 0,17.0442708 0,0" stroke="none" fill="#001636"></polygon></g></g><g transform="translate(16.11002604166667 0.0)"><g clip-path="url(#i2)"><polygon points="0,0 13.922526,0 13.922526,17.0556641 0,17.0556641 0,0" stroke="none" fill="#001636"></polygon></g></g><g transform="translate(31.8896484375 0.2392578125)"><g clip-path="url(#i3)"><polygon points="0,0 13.0566406,0 13.0566406,16.5885417 0,16.5885417 0,0" stroke="none" fill="#001636"></polygon></g></g><g transform="translate(52.45442708333334 0.011393229166666075)"><g clip-path="url(#i4)"><polygon points="0,0 14.5035807,0 14.5035807,19.8470052 0,19.8470052 0,0" stroke="none" fill="#001636"></polygon></g></g><g transform="translate(68.9404296875 0.2392578125)"><g clip-path="url(#i5)"><polygon points="0,0 13.0680339,0 13.0680339,16.8164062 0,16.8164062 0,0" stroke="none" fill="#001636"></polygon></g></g><g transform="translate(83.21614583333334 0.2392578125)"><g clip-path="url(#i6)"><polygon points="0,0 15.9733073,0 15.9733073,16.5885417 0,16.5885417 0,0" stroke="none" fill="#001636"></polygon></g></g><g transform="translate(100.3971354166667 0.2392578125)"><g clip-path="url(#i7)"><polygon points="0,0 10.9602865,0 10.9602865,16.5885417 0,16.5885417 0,0" stroke="none" fill="#001636"></polygon></g></g><g transform="translate(113.3170572916667 0.2392578125)"><g clip-path="url(#i8)"><polygon points="0,0 3.98763021,0 3.98763021,16.5885417 0,16.5885417 0,0" stroke="none" fill="#001636"></polygon></g></g><g transform="translate(120.0846354166667 0.2392578125)"><g clip-path="url(#i9)"><polygon points="0,0 11.0970052,0 11.0970052,16.5885417 0,16.5885417 0,0" stroke="none" fill="#001636"></polygon></g></g><g transform="translate(133.11848958333326 0.2392578125)"><g clip-path="url(#i10)"><polygon points="0,0 3.98763021,0 3.98763021,16.5885417 0,16.5885417 0,0" stroke="none" fill="#001636"></polygon></g></g><g transform="translate(139.4189453125 0.0)"><g clip-path="url(#i11)"><polygon points="0,0 13.922526,0 13.922526,17.0556641 0,17.0556641 0,0" stroke="none" fill="#001636"></polygon></g></g><g transform="translate(153.9111328125 0.2392578125)"><g clip-path="url(#i12)"><polygon points="0,0 15.9733073,0 15.9733073,16.5885417 0,16.5885417 0,0" stroke="none" fill="#001636"></polygon></g></g><g transform="translate(170.2490234375 0.2392578125)"><g clip-path="url(#i13)"><polygon points="0,0 13.8655599,0 13.8655599,16.5885417 0,16.5885417 0,0" stroke="none" fill="#001636"></polygon></g></g><g transform="translate(186.07421875 0.2392578125)"><g clip-path="url(#i14)"><polygon points="0,0 3.98763021,0 3.98763021,16.5885417 0,16.5885417 0,0" stroke="none" fill="#001636"></polygon></g></g><g transform="translate(192.3746744791667 0.011393229166666075)"><g clip-path="url(#i15)"><polygon points="0,0 14.514974,0 14.514974,17.0442708 0,17.0442708 0,0" stroke="none" fill="#001636"></polygon></g></g><g transform="translate(208.9518229166667 0.2392578125)"><g clip-path="url(#i16)"><polygon points="0,0 13.8541667,0 13.8541667,16.5885417 0,16.5885417 0,0" stroke="none" fill="#001636"></polygon></g></g><g transform="translate(231.1458333333333 0.2392578125)"><g clip-path="url(#i17)"><polygon points="0,0 13.0566406,0 13.0566406,16.5885417 0,16.5885417 0,0" stroke="none" fill="#001636"></polygon></g></g><g transform="translate(246.3330078125 0.2392578125)"><g clip-path="url(#i18)"><polygon points="0,0 13.375651,0 13.375651,16.5885417 0,16.5885417 0,0" stroke="none" fill="#001636"></polygon></g></g><g transform="translate(261.0872395833334 0.011393229166666075)"><g clip-path="url(#i15)"><polygon points="0,0 14.514974,0 14.514974,17.0442708 0,17.0442708 0,0" stroke="none" fill="#001636"></polygon></g></g></g><g transform="translate(11.207786914818541 33.3120333301551)"><g clip-path="url(#i19)"><polygon points="0,0 18.3683174,0 18.3683174,16.6879667 0,16.6879667 0,0" stroke="none" fill="#F35170"></polygon></g></g><g transform="translate(20.391945636683737 33.3120333301551)"><g clip-path="url(#i20)"><polygon points="0,0 9.18415872,0 9.18415872,16.532303 0,16.532303 0,0" stroke="none" fill="#E93465"></polygon></g></g><g transform="translate(11.207786914818541 36.892298594611034)"><g clip-path="url(#i21)"><polygon points="0,0 18.3683174,0 18.3683174,4.66991121 0,4.66991121 0,0" stroke="none" fill="#CC0F49"></polygon></g></g><g clip-path="url(#i22)"><polygon points="0,0 40.4725639,0 40.4725639,40.4725639 0,40.4725639 0,0" stroke="none" fill="#F9BE48"></polygon></g><g transform="translate(5.29256604310876 5.136902335958505)"><g clip-path="url(#i23)"><polygon points="0,0 30.1987592,0 30.1987592,30.1987592 0,30.1987592 0,0" stroke="none" fill="#FFFFFF" opacity="40%"></polygon></g></g><g transform="translate(5.758434866363869 4.727998939830261)"><g transform="translate(1.067188827235622 1.962817272252126)"><g transform=""><g transform="translate(0.02357942101183852 0.002723195378692367)"><g clip-path="url(#i24)"><polygon points="0,0 27.085485,0 27.085485,27.085485 0,27.085485 0,0" stroke="none" fill="#F3A250"></polygon></g></g><g clip-path="url(#i25)"><polygon points="-7.87564458e-16,-5.32907052e-15 27.1331715,-5.32907052e-15 27.1331715,14.479448 -7.87564458e-16,14.479448 -7.87564458e-16,-5.32907052e-15" stroke="none" fill="#EF7B55"></polygon></g><g transform="translate(3.808153301102479 4.049979581285383)"><g clip-path="url(#i26)"><polygon points="-1.22124533e-15,6.66133815e-16 18.1839168,6.66133815e-16 18.1839168,17.3761889 -1.22124533e-15,17.3761889 -1.22124533e-15,6.66133815e-16" stroke="none" fill="#EF7B55"></polygon></g></g><g transform="translate(4.430808129703506 4.5169707027361525)"><g clip-path="url(#i27)"><polygon points="-1.22124533e-15,7.21644966e-16 18.3395805,7.21644966e-16 18.3395805,17.6875163 -1.22124533e-15,17.6875163 -1.22124533e-15,7.21644966e-16" stroke="none" fill="#F9CF6B"></polygon></g></g><g transform="translate(5.402625301426291 5.4509529456377)"><g clip-path="url(#i28)"><polygon points="-1.1379786e-15,7.21644966e-16 16.1717296,7.21644966e-16 16.1717296,9.80681355 -1.1379786e-15,9.80681355 -1.1379786e-15,7.21644966e-16" stroke="none" fill="#FFFFFF" opacity="50%"></polygon></g></g></g><g transform="translate(12.07459624738827 6.831050203660989)"><g clip-path="url(#i29)"><polygon points="1.38777878e-15,1.33226763e-15 1.66666667,1.33226763e-15 1.66666667,3.30981088 1.38777878e-15,3.30981088 1.38777878e-15,1.33226763e-15" stroke="none" fill="#FFFFFF" opacity="70%"></polygon></g></g></g><g clip-path="url(#i30)"><polygon points="1.77635684e-15,1.33226763e-15 10.6838304,1.33226763e-15 10.6838304,10.7227912 1.77635684e-15,10.7227912 1.77635684e-15,1.33226763e-15" stroke="none" fill="#FFFFFF"></polygon></g></g><g transform="translate(12.29743286487035 41.09521868766799)"><g clip-path="url(#i31)"><polygon points="0.333333333,0 1.33333333,0 1.33333333,5.13690234 0.333333333,5.13690234 0.333333333,0" stroke="none" fill="#FFFFFF" opacity="50%"></polygon></g></g><g transform="translate(54.639892578125 35.25553385416666)"><g transform="translate(0.0 0.15462239583333304)"><g clip-path="url(#i32)"><polygon points="0,0 7.15128581,0 7.15128581,11.2565104 0,11.2565104 0,0" stroke="none" fill="#EF7B55"></polygon></g></g><g transform="translate(8.9990234375 0.15462239583333304)"><g clip-path="url(#i33)"><polygon points="0,0 8.14086914,0 8.14086914,11.2565104 0,11.2565104 0,0" stroke="none" fill="#EF7B55"></polygon></g></g><g transform="translate(19.15771484375 0.15462239583333304)"><g clip-path="url(#i34)"><polygon points="0,0 8.14860026,0 8.14860026,11.4111328 0,11.4111328 0,0" stroke="none" fill="#EF7B55"></polygon></g></g><g transform="translate(29.262288411458336 0.0)"><g clip-path="url(#i35)"><polygon points="0,0 8.66658529,0 8.66658529,11.5657552 0,11.5657552 0,0" stroke="none" fill="#EF7B55"></polygon></g></g><g transform="translate(38.86433919270834 0.15462239583333304)"><g clip-path="url(#i36)"><polygon points="0,0 9.90356445,0 9.90356445,11.2565104 0,11.2565104 0,0" stroke="none" fill="#EF7B55"></polygon></g></g><g transform="translate(49.355468750000014 0.15462239583333304)"><g clip-path="url(#i37)"><polygon points="0,0 8.70524089,0 8.70524089,11.2565104 0,11.2565104 0,0" stroke="none" fill="#EF7B55"></polygon></g></g><g transform="translate(59.74772135416667 0.15462239583333304)"><g clip-path="url(#i38)"><polygon points="0.0911458333,0 1.57552083,0 1.57552083,11.2565104 0.0911458333,11.2565104 0.0911458333,0" stroke="none" fill="#EF7B55"></polygon></g></g><g transform="translate(63.64257812500001 0.0)"><g clip-path="url(#i39)"><polygon points="0,0 9.05314128,0 9.05314128,11.5657552 0,11.5657552 0,0" stroke="none" fill="#EF7B55"></polygon></g></g><g transform="translate(74.92228190104167 0.15462239583333304)"><g clip-path="url(#i40)"><polygon points="0,0 8.65112305,0 8.65112305,11.2565104 0,11.2565104 0,0" stroke="none" fill="#EF7B55"></polygon></g></g><g transform="translate(89.10888671875001 5.796101888020834)"><g clip-path="url(#i41)"><polygon points="0,0.249633789 3.77278646,0.249633789 3.77278646,1.41703288 0,1.41703288 0,0.249633789" stroke="none" fill="#EF7B55"></polygon></g></g><g transform="translate(97.48942057291666 0.15462239583333304)"><g clip-path="url(#i42)"><polygon points="0,0 8.70524089,0 8.70524089,11.2565104 0,11.2565104 0,0" stroke="none" fill="#EF7B55"></polygon></g></g><g transform="translate(107.85685221354169 0.15462239583333304)"><g clip-path="url(#i43)"><polygon points="0,0 8.17179362,0 8.17179362,11.2565104 0,11.2565104 0,0" stroke="none" fill="#EF7B55"></polygon></g></g><g transform="translate(116.5234375 0.15462239583333304)"><g clip-path="url(#i36)"><polygon points="0,0 9.90356445,0 9.90356445,11.2565104 0,11.2565104 0,0" stroke="none" fill="#EF7B55"></polygon></g></g><g transform="translate(127.9593912760417 0.15462239583333304)"><g clip-path="url(#i44)"><polygon points="0.0911458333,0 1.57552083,0 1.57552083,11.2565104 0.0911458333,11.2565104 0.0911458333,0" stroke="none" fill="#EF7B55"></polygon></g></g><g transform="translate(132.24853515625 0.15462239583333304)"><g clip-path="url(#i40)"><polygon points="0,0 8.65112305,0 8.65112305,11.2565104 0,11.2565104 0,0" stroke="none" fill="#EF7B55"></polygon></g></g><g transform="translate(143.5530598958333 0.15462239583333304)"><g clip-path="url(#i45)"><polygon points="0.0911458333,0 1.57552083,0 1.57552083,11.2565104 0.0911458333,11.2565104 0.0911458333,0" stroke="none" fill="#EF7B55"></polygon></g></g><g transform="translate(147.8422037760417 0.15462239583333304)"><g clip-path="url(#i40)"><polygon points="0,0 8.65112305,0 8.65112305,11.2565104 0,11.2565104 0,0" stroke="none" fill="#EF7B55"></polygon></g></g><g transform="translate(158.7662760416667 0.0)"><g clip-path="url(#i46)"><polygon points="0,0 8.67431641,0 8.67431641,11.5657552 0,11.5657552 0,0" stroke="none" fill="#EF7B55"></polygon></g></g><g transform="translate(172.813720703125 5.796101888020834)"><g clip-path="url(#i41)"><polygon points="0,0.249633789 3.77278646,0.249633789 3.77278646,1.41703288 0,1.41703288 0,0.249633789" stroke="none" fill="#EF7B55"></polygon></g></g><g transform="translate(182.1219889322917 0.15462239583333304)"><g clip-path="url(#i47)"><polygon points="0,0 8.62792969,0 8.62792969,11.2565104 0,11.2565104 0,0" stroke="none" fill="#EF7B55"></polygon></g></g><g transform="translate(192.04874674479174 0.15462239583333304)"><g clip-path="url(#i48)"><polygon points="0,0 8.65112305,0 8.65112305,11.2565104 0,11.2565104 0,0" stroke="none" fill="#EF7B55"></polygon></g></g><g transform="translate(202.94189453125 0.0)"><g clip-path="url(#i49)"><polygon points="0,0 9.05314128,0 9.05314128,11.5657552 0,11.5657552 0,0" stroke="none" fill="#EF7B55"></polygon></g></g><g transform="translate(213.3866373697917 0.15462239583333304)"><g clip-path="url(#i50)"><polygon points="0,0 13.2356771,0 13.2356771,11.2565104 0,11.2565104 0,0" stroke="none" fill="#EF7B55"></polygon></g></g><g transform="translate(228.26904296875 0.15462239583333304)"><g clip-path="url(#i51)"><polygon points="0,0 6.82657878,0 6.82657878,11.2565104 0,11.2565104 0,0" stroke="none" fill="#EF7B55"></polygon></g></g><g transform="translate(236.78873697916674 0.15462239583333304)"><g clip-path="url(#i52)"><polygon points="0,0 7.15128581,0 7.15128581,11.2565104 0,11.2565104 0,0" stroke="none" fill="#EF7B55"></polygon></g></g><g transform="translate(245.7877604166667 0.15462239583333304)"><g clip-path="url(#i33)"><polygon points="0,0 8.14086914,0 8.14086914,11.2565104 0,11.2565104 0,0" stroke="none" fill="#EF7B55"></polygon></g></g><g transform="translate(255.80729166666674 0.0)"><g clip-path="url(#i46)"><polygon points="0,0 8.67431641,0 8.67431641,11.5657552 0,11.5657552 0,0" stroke="none" fill="#EF7B55"></polygon></g></g><g transform="translate(266.95556640625 0.15462239583333304)"><g clip-path="url(#i53)"><polygon points="0,0 7.15128581,0 7.15128581,11.2565104 0,11.2565104 0,0" stroke="none" fill="#EF7B55"></polygon></g></g></g></g></g></g></svg>